<svg width="112" height="24" viewBox="0 0 112 24" fill="none" xmlns="http://www.w3.org/2000/svg">
<path d="M1.884 5.148H6.096C7.248 5.148 8.202 5.328 8.958 5.688C9.726 6.048 10.338 6.528 10.794 7.128C11.25 7.728 11.568 8.412 11.748 9.18C11.94 9.948 12.036 10.74 12.036 11.556C12.036 12.468 11.916 13.32 11.676 14.112C11.448 14.892 11.088 15.57 10.596 16.146C10.104 16.722 9.48 17.178 8.724 17.514C7.98 17.838 7.092 18 6.06 18H1.884V5.148ZM6.132 17.316C6.732 17.316 7.332 17.226 7.932 17.046C8.544 16.854 9.096 16.542 9.588 16.11C10.08 15.666 10.476 15.078 10.776 14.346C11.088 13.602 11.244 12.672 11.244 11.556C11.244 10.68 11.154 9.93 10.974 9.306C10.806 8.682 10.578 8.16 10.29 7.74C10.014 7.308 9.69 6.972 9.318 6.732C8.958 6.48 8.58 6.288 8.184 6.156C7.8 6.024 7.41 5.94 7.014 5.904C6.63 5.856 6.282 5.832 5.97 5.832H2.676V17.316H6.132ZM15.8459 7.002V5.148H16.5299V7.002H15.8459ZM15.8459 18V8.748H16.5299V18H15.8459ZM20.9513 14.922C20.9753 15.354 21.0713 15.738 21.2393 16.074C21.4073 16.398 21.6233 16.68 21.8873 16.92C22.1633 17.148 22.4813 17.322 22.8413 17.442C23.2013 17.562 23.5913 17.622 24.0113 17.622C24.3113 17.622 24.6293 17.598 24.9653 17.55C25.3133 17.49 25.6313 17.388 25.9193 17.244C26.2193 17.1 26.4653 16.902 26.6573 16.65C26.8493 16.386 26.9453 16.056 26.9453 15.66C26.9453 15.144 26.7893 14.754 26.4773 14.49C26.1653 14.226 25.7693 14.022 25.2893 13.878C24.8213 13.734 24.3113 13.62 23.7593 13.536C23.2193 13.44 22.7093 13.302 22.2293 13.122C21.7613 12.942 21.3713 12.69 21.0593 12.366C20.7473 12.03 20.5913 11.544 20.5913 10.908C20.5913 10.452 20.6933 10.074 20.8973 9.774C21.1013 9.462 21.3593 9.216 21.6713 9.036C21.9953 8.856 22.3553 8.73 22.7513 8.658C23.1473 8.574 23.5433 8.532 23.9393 8.532C24.4193 8.532 24.8693 8.586 25.2893 8.694C25.7093 8.802 26.0693 8.976 26.3693 9.216C26.6813 9.456 26.9213 9.762 27.0893 10.134C27.2693 10.506 27.3593 10.956 27.3593 11.484H26.6753C26.6753 11.064 26.6033 10.704 26.4593 10.404C26.3273 10.104 26.1353 9.864 25.8833 9.684C25.6433 9.492 25.3553 9.354 25.0193 9.27C24.6833 9.174 24.3233 9.126 23.9393 9.126C23.6273 9.126 23.3093 9.156 22.9853 9.216C22.6733 9.276 22.3913 9.378 22.1393 9.522C21.8873 9.666 21.6773 9.852 21.5093 10.08C21.3533 10.308 21.2753 10.584 21.2753 10.908C21.2753 11.28 21.3653 11.58 21.5453 11.808C21.7253 12.036 21.9593 12.222 22.2473 12.366C22.5473 12.498 22.8773 12.606 23.2373 12.69C23.6093 12.774 23.9813 12.858 24.3533 12.942C24.8093 13.026 25.2353 13.128 25.6313 13.248C26.0393 13.356 26.3873 13.512 26.6753 13.716C26.9753 13.908 27.2093 14.16 27.3773 14.472C27.5453 14.784 27.6293 15.18 27.6293 15.66C27.6293 16.164 27.5153 16.578 27.2873 16.902C27.0593 17.226 26.7713 17.49 26.4233 17.694C26.0753 17.886 25.6853 18.018 25.2533 18.09C24.8333 18.174 24.4193 18.216 24.0113 18.216C23.4833 18.216 22.9913 18.144 22.5353 18C22.0913 17.868 21.7013 17.664 21.3653 17.388C21.0293 17.1 20.7653 16.752 20.5733 16.344C20.3813 15.936 20.2793 15.462 20.2673 14.922H20.9513ZM34.6153 9.342H32.5993V15.804C32.5993 16.176 32.6413 16.47 32.7253 16.686C32.8093 16.902 32.9353 17.07 33.1033 17.19C33.2833 17.298 33.4933 17.364 33.7333 17.388C33.9853 17.412 34.2733 17.418 34.5973 17.406V18C34.2493 18.024 33.9073 18.024 33.5713 18C33.2473 17.964 32.9593 17.874 32.7073 17.73C32.4553 17.574 32.2513 17.346 32.0953 17.046C31.9513 16.746 31.8913 16.332 31.9153 15.804V9.342H30.2053V8.748H31.9153V5.868H32.5993V8.748H34.6153V9.342ZM43.9295 16.164H43.8935C43.7855 16.44 43.6295 16.704 43.4255 16.956C43.2215 17.196 42.9695 17.412 42.6695 17.604C42.3815 17.796 42.0515 17.946 41.6795 18.054C41.3075 18.162 40.8995 18.216 40.4555 18.216C39.4715 18.216 38.7095 18.006 38.1695 17.586C37.6295 17.154 37.3595 16.494 37.3595 15.606C37.3595 15.066 37.4675 14.628 37.6835 14.292C37.8995 13.944 38.1695 13.674 38.4935 13.482C38.8295 13.278 39.1955 13.134 39.5915 13.05C39.9995 12.966 40.3895 12.906 40.7615 12.87L41.8235 12.78C42.3155 12.744 42.6995 12.69 42.9755 12.618C43.2635 12.534 43.4795 12.426 43.6235 12.294C43.7675 12.15 43.8575 11.97 43.8935 11.754C43.9295 11.538 43.9475 11.268 43.9475 10.944C43.9475 10.692 43.8995 10.458 43.8035 10.242C43.7075 10.026 43.5575 9.834 43.3535 9.666C43.1495 9.498 42.8855 9.366 42.5615 9.27C42.2375 9.174 41.8415 9.126 41.3735 9.126C40.5455 9.126 39.8735 9.33 39.3575 9.738C38.8535 10.146 38.5775 10.764 38.5295 11.592H37.8455C37.8935 10.572 38.2175 9.81 38.8175 9.306C39.4295 8.79 40.2935 8.532 41.4095 8.532C42.5255 8.532 43.3355 8.754 43.8395 9.198C44.3555 9.63 44.6135 10.2 44.6135 10.908V16.29C44.6135 16.422 44.6135 16.554 44.6135 16.686C44.6255 16.818 44.6495 16.938 44.6855 17.046C44.7215 17.154 44.7815 17.244 44.8655 17.316C44.9495 17.376 45.0695 17.406 45.2255 17.406C45.3455 17.406 45.5135 17.388 45.7295 17.352V17.928C45.5495 17.976 45.3635 18 45.1715 18C44.8955 18 44.6735 17.964 44.5055 17.892C44.3495 17.82 44.2295 17.724 44.1455 17.604C44.0615 17.484 44.0015 17.346 43.9655 17.19C43.9415 17.022 43.9295 16.842 43.9295 16.65V16.164ZM43.9295 12.744C43.7615 12.948 43.5035 13.086 43.1555 13.158C42.8195 13.23 42.4415 13.284 42.0215 13.32L40.8695 13.428C40.5335 13.464 40.1975 13.518 39.8615 13.59C39.5255 13.65 39.2195 13.758 38.9435 13.914C38.6795 14.07 38.4635 14.286 38.2955 14.562C38.1275 14.826 38.0435 15.174 38.0435 15.606C38.0435 16.29 38.2595 16.8 38.6915 17.136C39.1235 17.46 39.7175 17.622 40.4735 17.622C41.2535 17.622 41.8715 17.484 42.3275 17.208C42.7835 16.92 43.1315 16.596 43.3715 16.236C43.6115 15.864 43.7615 15.51 43.8215 15.174C43.8935 14.826 43.9295 14.592 43.9295 14.472V12.744ZM48.7115 8.748H49.3955V10.728H49.4315C49.5515 10.38 49.7195 10.074 49.9355 9.81C50.1635 9.534 50.4215 9.3 50.7095 9.108C51.0095 8.916 51.3335 8.772 51.6815 8.676C52.0295 8.58 52.3835 8.532 52.7435 8.532C53.2835 8.532 53.7395 8.598 54.1115 8.73C54.4955 8.862 54.8075 9.036 55.0475 9.252C55.2875 9.468 55.4735 9.714 55.6055 9.99C55.7495 10.254 55.8515 10.524 55.9115 10.8C55.9715 11.076 56.0075 11.346 56.0195 11.61C56.0315 11.862 56.0375 12.084 56.0375 12.276V18H55.3535V12.15C55.3535 11.922 55.3355 11.634 55.2995 11.286C55.2635 10.938 55.1555 10.608 54.9755 10.296C54.8075 9.972 54.5435 9.696 54.1835 9.468C53.8355 9.24 53.3495 9.126 52.7255 9.126C52.1975 9.126 51.7295 9.222 51.3215 9.414C50.9135 9.606 50.5655 9.876 50.2775 10.224C49.9895 10.56 49.7675 10.968 49.6115 11.448C49.4675 11.916 49.3955 12.432 49.3955 12.996V18H48.7115V8.748ZM66.9315 11.61C66.8955 11.202 66.7875 10.842 66.6075 10.53C66.4395 10.218 66.2175 9.96 65.9415 9.756C65.6655 9.552 65.3415 9.396 64.9695 9.288C64.6095 9.18 64.2195 9.126 63.7995 9.126C63.2235 9.126 62.7135 9.246 62.2695 9.486C61.8255 9.714 61.4535 10.026 61.1535 10.422C60.8535 10.806 60.6255 11.25 60.4695 11.754C60.3135 12.246 60.2355 12.756 60.2355 13.284C60.2355 13.908 60.3075 14.484 60.4515 15.012C60.5955 15.54 60.8175 16.002 61.1175 16.398C61.4175 16.782 61.7895 17.082 62.2335 17.298C62.6775 17.514 63.1995 17.622 63.7995 17.622C64.2315 17.622 64.6275 17.55 64.9875 17.406C65.3595 17.262 65.6835 17.064 65.9595 16.812C66.2475 16.56 66.4815 16.26 66.6615 15.912C66.8415 15.552 66.9615 15.162 67.0215 14.742H67.7055C67.6335 15.294 67.4835 15.786 67.2555 16.218C67.0275 16.65 66.7395 17.016 66.3915 17.316C66.0435 17.604 65.6475 17.826 65.2035 17.982C64.7595 18.138 64.2915 18.216 63.7995 18.216C63.0435 18.216 62.3955 18.084 61.8555 17.82C61.3275 17.544 60.8895 17.178 60.5415 16.722C60.2055 16.266 59.9535 15.744 59.7855 15.156C59.6295 14.556 59.5515 13.932 59.5515 13.284C59.5515 12.636 59.6415 12.024 59.8215 11.448C60.0135 10.872 60.2895 10.368 60.6495 9.936C61.0095 9.504 61.4535 9.162 61.9815 8.91C62.5095 8.658 63.1155 8.532 63.7995 8.532C64.3035 8.532 64.7715 8.598 65.2035 8.73C65.6475 8.85 66.0375 9.036 66.3735 9.288C66.7215 9.54 67.0035 9.864 67.2195 10.26C67.4355 10.644 67.5675 11.094 67.6155 11.61H66.9315ZM71.4895 13.464V13.572C71.4895 14.112 71.5615 14.628 71.7055 15.12C71.8495 15.612 72.0595 16.044 72.3355 16.416C72.6235 16.788 72.9775 17.082 73.3975 17.298C73.8295 17.514 74.3275 17.622 74.8915 17.622C75.8155 17.622 76.5475 17.382 77.0875 16.902C77.6275 16.41 77.9995 15.732 78.2035 14.868H78.8875C78.6835 15.948 78.2395 16.776 77.5555 17.352C76.8835 17.928 75.9895 18.216 74.8735 18.216C74.1895 18.216 73.5895 18.096 73.0735 17.856C72.5695 17.604 72.1435 17.268 71.7955 16.848C71.4595 16.416 71.2075 15.912 71.0395 15.336C70.8715 14.748 70.7875 14.118 70.7875 13.446C70.7875 12.798 70.8715 12.18 71.0395 11.592C71.2195 10.992 71.4835 10.47 71.8315 10.026C72.1795 9.57 72.6115 9.21 73.1275 8.946C73.6555 8.67 74.2735 8.532 74.9815 8.532C75.6295 8.532 76.1995 8.652 76.6915 8.892C77.1955 9.132 77.6155 9.462 77.9515 9.882C78.2875 10.29 78.5395 10.77 78.7075 11.322C78.8875 11.862 78.9775 12.444 78.9775 13.068C78.9775 13.128 78.9715 13.2 78.9595 13.284C78.9595 13.356 78.9595 13.416 78.9595 13.464H71.4895ZM78.2755 12.87C78.2515 12.366 78.1675 11.892 78.0235 11.448C77.8795 10.992 77.6635 10.596 77.3755 10.26C77.0995 9.912 76.7575 9.636 76.3495 9.432C75.9535 9.228 75.4975 9.126 74.9815 9.126C74.4295 9.126 73.9435 9.234 73.5235 9.45C73.1035 9.654 72.7495 9.93 72.4615 10.278C72.1735 10.614 71.9515 11.01 71.7955 11.466C71.6395 11.922 71.5435 12.39 71.5075 12.87H78.2755Z" fill="black"/>
<path fill-rule="evenodd" clip-rule="evenodd" d="M108.579 7.15653C108.688 7.26772 108.75 7.41772 108.75 7.57403C108.75 7.73034 108.688 7.88035 108.579 7.99153L100.151 16.8205C100.1 16.8769 100.039 16.922 99.9697 16.9529C99.9007 16.9838 99.8261 16.9997 99.7505 16.9997C99.675 16.9997 99.6003 16.9838 99.5314 16.9529C99.4624 16.922 99.4008 16.8769 99.3505 16.8205L90.9225 8.02053C90.8133 7.90908 90.7516 7.75957 90.7505 7.60353C90.7512 7.44741 90.813 7.29775 90.9225 7.18653C90.9728 7.13016 91.0344 7.08505 91.1034 7.05417C91.1723 7.02328 91.247 7.00732 91.3225 7.00732C91.3981 7.00732 91.4727 7.02328 91.5417 7.05417C91.6106 7.08505 91.6722 7.13016 91.7225 7.18653L99.7515 15.5375L107.781 7.15453C107.89 7.05459 108.032 6.99933 108.18 6.9997C108.328 7.00007 108.471 7.05605 108.58 7.15653L108.579 7.15653Z" fill="black"/>
</svg>
