<svg width="143" height="24" viewBox="0 0 143 24" fill="none" xmlns="http://www.w3.org/2000/svg">
<path d="M1.384 5.148H6.856C7.216 5.148 7.612 5.19 8.044 5.274C8.488 5.358 8.896 5.532 9.268 5.796C9.652 6.048 9.97 6.414 10.222 6.894C10.474 7.362 10.6 7.98 10.6 8.748C10.6 9.876 10.252 10.746 9.556 11.358C8.86 11.97 7.864 12.276 6.568 12.276H2.176V18H1.384V5.148ZM2.176 11.592H6.694C7.27 11.592 7.756 11.508 8.152 11.34C8.56 11.16 8.884 10.932 9.124 10.656C9.364 10.38 9.538 10.074 9.646 9.738C9.754 9.402 9.808 9.066 9.808 8.73C9.808 8.49 9.772 8.208 9.7 7.884C9.628 7.548 9.484 7.23 9.268 6.93C9.052 6.618 8.746 6.36 8.35 6.156C7.966 5.94 7.45 5.832 6.802 5.832H2.176V11.592ZM14.1452 10.8H14.1992C14.2832 10.5 14.4332 10.218 14.6492 9.954C14.8772 9.69 15.1472 9.462 15.4592 9.27C15.7832 9.078 16.1372 8.934 16.5212 8.838C16.9172 8.73 17.3252 8.682 17.7452 8.694V9.378C17.3852 9.33 16.9712 9.366 16.5032 9.486C16.0472 9.606 15.6092 9.87 15.1892 10.278C15.0212 10.458 14.8712 10.632 14.7392 10.8C14.6192 10.968 14.5172 11.154 14.4332 11.358C14.3492 11.562 14.2832 11.79 14.2352 12.042C14.1872 12.294 14.1572 12.594 14.1452 12.942V18H13.4612V8.748H14.1452V10.8ZM20.553 7.002V5.148H21.237V7.002H20.553ZM20.553 18V8.748H21.237V18H20.553ZM32.3004 11.61C32.2644 11.202 32.1564 10.842 31.9764 10.53C31.8084 10.218 31.5864 9.96 31.3104 9.756C31.0344 9.552 30.7104 9.396 30.3384 9.288C29.9784 9.18 29.5884 9.126 29.1684 9.126C28.5924 9.126 28.0824 9.246 27.6384 9.486C27.1944 9.714 26.8224 10.026 26.5224 10.422C26.2224 10.806 25.9944 11.25 25.8384 11.754C25.6824 12.246 25.6044 12.756 25.6044 13.284C25.6044 13.908 25.6764 14.484 25.8204 15.012C25.9644 15.54 26.1864 16.002 26.4864 16.398C26.7864 16.782 27.1584 17.082 27.6024 17.298C28.0464 17.514 28.5684 17.622 29.1684 17.622C29.6004 17.622 29.9964 17.55 30.3564 17.406C30.7284 17.262 31.0524 17.064 31.3284 16.812C31.6164 16.56 31.8504 16.26 32.0304 15.912C32.2104 15.552 32.3304 15.162 32.3904 14.742H33.0744C33.0024 15.294 32.8524 15.786 32.6244 16.218C32.3964 16.65 32.1084 17.016 31.7604 17.316C31.4124 17.604 31.0164 17.826 30.5724 17.982C30.1284 18.138 29.6604 18.216 29.1684 18.216C28.4124 18.216 27.7644 18.084 27.2244 17.82C26.6964 17.544 26.2584 17.178 25.9104 16.722C25.5744 16.266 25.3224 15.744 25.1544 15.156C24.9984 14.556 24.9204 13.932 24.9204 13.284C24.9204 12.636 25.0104 12.024 25.1904 11.448C25.3824 10.872 25.6584 10.368 26.0184 9.936C26.3784 9.504 26.8224 9.162 27.3504 8.91C27.8784 8.658 28.4844 8.532 29.1684 8.532C29.6724 8.532 30.1404 8.598 30.5724 8.73C31.0164 8.85 31.4064 9.036 31.7424 9.288C32.0904 9.54 32.3724 9.864 32.5884 10.26C32.8044 10.644 32.9364 11.094 32.9844 11.61H32.3004ZM36.8584 13.464V13.572C36.8584 14.112 36.9304 14.628 37.0744 15.12C37.2184 15.612 37.4284 16.044 37.7044 16.416C37.9924 16.788 38.3464 17.082 38.7664 17.298C39.1984 17.514 39.6964 17.622 40.2604 17.622C41.1844 17.622 41.9164 17.382 42.4564 16.902C42.9964 16.41 43.3684 15.732 43.5724 14.868H44.2564C44.0524 15.948 43.6084 16.776 42.9244 17.352C42.2524 17.928 41.3584 18.216 40.2424 18.216C39.5584 18.216 38.9584 18.096 38.4424 17.856C37.9384 17.604 37.5124 17.268 37.1644 16.848C36.8284 16.416 36.5764 15.912 36.4084 15.336C36.2404 14.748 36.1564 14.118 36.1564 13.446C36.1564 12.798 36.2404 12.18 36.4084 11.592C36.5884 10.992 36.8524 10.47 37.2004 10.026C37.5484 9.57 37.9804 9.21 38.4964 8.946C39.0244 8.67 39.6424 8.532 40.3504 8.532C40.9984 8.532 41.5684 8.652 42.0604 8.892C42.5644 9.132 42.9844 9.462 43.3204 9.882C43.6564 10.29 43.9084 10.77 44.0764 11.322C44.2564 11.862 44.3464 12.444 44.3464 13.068C44.3464 13.128 44.3404 13.2 44.3284 13.284C44.3284 13.356 44.3284 13.416 44.3284 13.464H36.8584ZM43.6444 12.87C43.6204 12.366 43.5364 11.892 43.3924 11.448C43.2484 10.992 43.0324 10.596 42.7444 10.26C42.4684 9.912 42.1264 9.636 41.7184 9.432C41.3224 9.228 40.8664 9.126 40.3504 9.126C39.7984 9.126 39.3124 9.234 38.8924 9.45C38.4724 9.654 38.1184 9.93 37.8304 10.278C37.5424 10.614 37.3204 11.01 37.1644 11.466C37.0084 11.922 36.9124 12.39 36.8764 12.87H43.6444ZM54.8981 5.148H60.2621C60.8261 5.148 61.3541 5.208 61.8461 5.328C62.3381 5.436 62.7701 5.622 63.1421 5.886C63.5141 6.138 63.8021 6.474 64.0061 6.894C64.2221 7.314 64.3301 7.836 64.3301 8.46C64.3301 9.324 64.0841 10.056 63.5921 10.656C63.1121 11.244 62.4401 11.61 61.5761 11.754V11.79C62.1641 11.862 62.6261 12.018 62.9621 12.258C63.3101 12.498 63.5681 12.792 63.7361 13.14C63.9041 13.488 64.0121 13.872 64.0601 14.292C64.1081 14.712 64.1321 15.132 64.1321 15.552C64.1321 15.804 64.1321 16.05 64.1321 16.29C64.1321 16.53 64.1441 16.758 64.1681 16.974C64.1921 17.178 64.2281 17.37 64.2761 17.55C64.3361 17.73 64.4141 17.88 64.5101 18H63.6281C63.4601 17.7 63.3641 17.352 63.3401 16.956C63.3281 16.548 63.3221 16.128 63.3221 15.696C63.3221 15.264 63.3041 14.838 63.2681 14.418C63.2321 13.986 63.1181 13.602 62.9261 13.266C62.7341 12.93 62.4281 12.66 62.0081 12.456C61.6001 12.252 61.0181 12.15 60.2621 12.15H55.6901V18H54.8981V5.148ZM60.2621 11.466C60.7301 11.466 61.1621 11.412 61.5581 11.304C61.9661 11.184 62.3141 11.004 62.6021 10.764C62.8901 10.524 63.1181 10.218 63.2861 9.846C63.4541 9.474 63.5381 9.03 63.5381 8.514C63.5381 8.034 63.4481 7.626 63.2681 7.29C63.0881 6.942 62.8481 6.66 62.5481 6.444C62.2481 6.228 61.9001 6.072 61.5041 5.976C61.1081 5.88 60.6941 5.832 60.2621 5.832H55.6901V11.466H60.2621ZM74.168 16.164H74.132C74.024 16.44 73.868 16.704 73.664 16.956C73.46 17.196 73.208 17.412 72.908 17.604C72.62 17.796 72.29 17.946 71.918 18.054C71.546 18.162 71.138 18.216 70.694 18.216C69.71 18.216 68.948 18.006 68.408 17.586C67.868 17.154 67.598 16.494 67.598 15.606C67.598 15.066 67.706 14.628 67.922 14.292C68.138 13.944 68.408 13.674 68.732 13.482C69.068 13.278 69.434 13.134 69.83 13.05C70.238 12.966 70.628 12.906 71 12.87L72.062 12.78C72.554 12.744 72.938 12.69 73.214 12.618C73.502 12.534 73.718 12.426 73.862 12.294C74.006 12.15 74.096 11.97 74.132 11.754C74.168 11.538 74.186 11.268 74.186 10.944C74.186 10.692 74.138 10.458 74.042 10.242C73.946 10.026 73.796 9.834 73.592 9.666C73.388 9.498 73.124 9.366 72.8 9.27C72.476 9.174 72.08 9.126 71.612 9.126C70.784 9.126 70.112 9.33 69.596 9.738C69.092 10.146 68.816 10.764 68.768 11.592H68.084C68.132 10.572 68.456 9.81 69.056 9.306C69.668 8.79 70.532 8.532 71.648 8.532C72.764 8.532 73.574 8.754 74.078 9.198C74.594 9.63 74.852 10.2 74.852 10.908V16.29C74.852 16.422 74.852 16.554 74.852 16.686C74.864 16.818 74.888 16.938 74.924 17.046C74.96 17.154 75.02 17.244 75.104 17.316C75.188 17.376 75.308 17.406 75.464 17.406C75.584 17.406 75.752 17.388 75.968 17.352V17.928C75.788 17.976 75.602 18 75.41 18C75.134 18 74.912 17.964 74.744 17.892C74.588 17.82 74.468 17.724 74.384 17.604C74.3 17.484 74.24 17.346 74.204 17.19C74.18 17.022 74.168 16.842 74.168 16.65V16.164ZM74.168 12.744C74 12.948 73.742 13.086 73.394 13.158C73.058 13.23 72.68 13.284 72.26 13.32L71.108 13.428C70.772 13.464 70.436 13.518 70.1 13.59C69.764 13.65 69.458 13.758 69.182 13.914C68.918 14.07 68.702 14.286 68.534 14.562C68.366 14.826 68.282 15.174 68.282 15.606C68.282 16.29 68.498 16.8 68.93 17.136C69.362 17.46 69.956 17.622 70.712 17.622C71.492 17.622 72.11 17.484 72.566 17.208C73.022 16.92 73.37 16.596 73.61 16.236C73.85 15.864 74 15.51 74.06 15.174C74.132 14.826 74.168 14.592 74.168 14.472V12.744ZM78.95 8.748H79.634V10.728H79.67C79.79 10.38 79.958 10.074 80.174 9.81C80.402 9.534 80.66 9.3 80.948 9.108C81.248 8.916 81.572 8.772 81.92 8.676C82.268 8.58 82.622 8.532 82.982 8.532C83.522 8.532 83.978 8.598 84.35 8.73C84.734 8.862 85.046 9.036 85.286 9.252C85.526 9.468 85.712 9.714 85.844 9.99C85.988 10.254 86.09 10.524 86.15 10.8C86.21 11.076 86.246 11.346 86.258 11.61C86.27 11.862 86.276 12.084 86.276 12.276V18H85.592V12.15C85.592 11.922 85.574 11.634 85.538 11.286C85.502 10.938 85.394 10.608 85.214 10.296C85.046 9.972 84.782 9.696 84.422 9.468C84.074 9.24 83.588 9.126 82.964 9.126C82.436 9.126 81.968 9.222 81.56 9.414C81.152 9.606 80.804 9.876 80.516 10.224C80.228 10.56 80.006 10.968 79.85 11.448C79.706 11.916 79.634 12.432 79.634 12.996V18H78.95V8.748ZM97.854 8.748V17.514C97.854 18.03 97.794 18.528 97.674 19.008C97.554 19.5 97.344 19.932 97.044 20.304C96.756 20.676 96.354 20.97 95.838 21.186C95.322 21.414 94.668 21.528 93.876 21.528C93.384 21.528 92.922 21.474 92.49 21.366C92.058 21.27 91.68 21.108 91.356 20.88C91.032 20.664 90.768 20.37 90.564 19.998C90.372 19.638 90.264 19.188 90.24 18.648H90.924C90.96 19.056 91.062 19.404 91.23 19.692C91.398 19.98 91.614 20.214 91.878 20.394C92.154 20.586 92.46 20.724 92.796 20.808C93.132 20.892 93.492 20.934 93.876 20.934C94.512 20.934 95.04 20.838 95.46 20.646C95.892 20.454 96.234 20.202 96.486 19.89C96.738 19.59 96.912 19.242 97.008 18.846C97.116 18.462 97.17 18.072 97.17 17.676V15.552H97.134C96.81 16.236 96.366 16.758 95.802 17.118C95.25 17.478 94.578 17.658 93.786 17.658C93.102 17.658 92.508 17.544 92.004 17.316C91.512 17.076 91.098 16.752 90.762 16.344C90.438 15.924 90.192 15.438 90.024 14.886C89.868 14.334 89.79 13.734 89.79 13.086C89.79 12.474 89.874 11.892 90.042 11.34C90.222 10.788 90.48 10.308 90.816 9.9C91.152 9.48 91.566 9.15 92.058 8.91C92.562 8.658 93.138 8.532 93.786 8.532C94.518 8.532 95.19 8.718 95.802 9.09C96.426 9.462 96.87 9.99 97.134 10.674H97.17V8.748H97.854ZM93.786 9.126C93.222 9.126 92.73 9.24 92.31 9.468C91.902 9.696 91.56 9.996 91.284 10.368C91.02 10.74 90.816 11.166 90.672 11.646C90.54 12.114 90.474 12.594 90.474 13.086C90.474 13.626 90.54 14.142 90.672 14.634C90.816 15.114 91.026 15.534 91.302 15.894C91.59 16.254 91.938 16.542 92.346 16.758C92.766 16.962 93.246 17.064 93.786 17.064C94.35 17.064 94.842 16.956 95.262 16.74C95.682 16.524 96.03 16.23 96.306 15.858C96.594 15.486 96.804 15.066 96.936 14.598C97.08 14.118 97.152 13.614 97.152 13.086C97.152 12.57 97.08 12.072 96.936 11.592C96.804 11.112 96.594 10.692 96.306 10.332C96.03 9.96 95.682 9.666 95.262 9.45C94.842 9.234 94.35 9.126 93.786 9.126ZM102.062 13.464V13.572C102.062 14.112 102.134 14.628 102.278 15.12C102.422 15.612 102.632 16.044 102.908 16.416C103.196 16.788 103.55 17.082 103.97 17.298C104.402 17.514 104.9 17.622 105.464 17.622C106.388 17.622 107.12 17.382 107.66 16.902C108.2 16.41 108.572 15.732 108.776 14.868H109.46C109.256 15.948 108.812 16.776 108.128 17.352C107.456 17.928 106.562 18.216 105.446 18.216C104.762 18.216 104.162 18.096 103.646 17.856C103.142 17.604 102.716 17.268 102.368 16.848C102.032 16.416 101.78 15.912 101.612 15.336C101.444 14.748 101.36 14.118 101.36 13.446C101.36 12.798 101.444 12.18 101.612 11.592C101.792 10.992 102.056 10.47 102.404 10.026C102.752 9.57 103.184 9.21 103.7 8.946C104.228 8.67 104.846 8.532 105.554 8.532C106.202 8.532 106.772 8.652 107.264 8.892C107.768 9.132 108.188 9.462 108.524 9.882C108.86 10.29 109.112 10.77 109.28 11.322C109.46 11.862 109.55 12.444 109.55 13.068C109.55 13.128 109.544 13.2 109.532 13.284C109.532 13.356 109.532 13.416 109.532 13.464H102.062ZM108.848 12.87C108.824 12.366 108.74 11.892 108.596 11.448C108.452 10.992 108.236 10.596 107.948 10.26C107.672 9.912 107.33 9.636 106.922 9.432C106.526 9.228 106.07 9.126 105.554 9.126C105.002 9.126 104.516 9.234 104.096 9.45C103.676 9.654 103.322 9.93 103.034 10.278C102.746 10.614 102.524 11.01 102.368 11.466C102.212 11.922 102.116 12.39 102.08 12.87H108.848Z" fill="black"/>
<path fill-rule="evenodd" clip-rule="evenodd" d="M139.079 7.15653C139.188 7.26772 139.25 7.41772 139.25 7.57403C139.25 7.73034 139.188 7.88035 139.079 7.99153L130.651 16.8205C130.6 16.8769 130.539 16.922 130.47 16.9529C130.401 16.9838 130.326 16.9997 130.251 16.9997C130.175 16.9997 130.1 16.9838 130.031 16.9529C129.962 16.922 129.901 16.8769 129.851 16.8205L121.423 8.02053C121.313 7.90908 121.252 7.75957 121.251 7.60353C121.251 7.44741 121.313 7.29775 121.423 7.18653C121.473 7.13016 121.534 7.08505 121.603 7.05417C121.672 7.02328 121.747 7.00732 121.823 7.00732C121.898 7.00732 121.973 7.02328 122.042 7.05417C122.111 7.08505 122.172 7.13016 122.223 7.18653L130.252 15.5375L138.281 7.15453C138.39 7.05459 138.532 6.99933 138.68 6.9997C138.828 7.00007 138.971 7.05605 139.08 7.15653L139.079 7.15653Z" fill="black"/>
</svg>
