<svg width="90" height="24" viewBox="0 0 90 24" fill="none" xmlns="http://www.w3.org/2000/svg">
<path d="M1.884 5.148H7.248C7.812 5.148 8.34 5.208 8.832 5.328C9.324 5.436 9.756 5.622 10.128 5.886C10.5 6.138 10.788 6.474 10.992 6.894C11.208 7.314 11.316 7.836 11.316 8.46C11.316 9.324 11.07 10.056 10.578 10.656C10.098 11.244 9.426 11.61 8.562 11.754V11.79C9.15 11.862 9.612 12.018 9.948 12.258C10.296 12.498 10.554 12.792 10.722 13.14C10.89 13.488 10.998 13.872 11.046 14.292C11.094 14.712 11.118 15.132 11.118 15.552C11.118 15.804 11.118 16.05 11.118 16.29C11.118 16.53 11.13 16.758 11.154 16.974C11.178 17.178 11.214 17.37 11.262 17.55C11.322 17.73 11.4 17.88 11.496 18H10.614C10.446 17.7 10.35 17.352 10.326 16.956C10.314 16.548 10.308 16.128 10.308 15.696C10.308 15.264 10.29 14.838 10.254 14.418C10.218 13.986 10.104 13.602 9.912 13.266C9.72 12.93 9.414 12.66 8.994 12.456C8.586 12.252 8.004 12.15 7.248 12.15H2.676V18H1.884V5.148ZM7.248 11.466C7.716 11.466 8.148 11.412 8.544 11.304C8.952 11.184 9.3 11.004 9.588 10.764C9.876 10.524 10.104 10.218 10.272 9.846C10.44 9.474 10.524 9.03 10.524 8.514C10.524 8.034 10.434 7.626 10.254 7.29C10.074 6.942 9.834 6.66 9.534 6.444C9.234 6.228 8.886 6.072 8.49 5.976C8.094 5.88 7.68 5.832 7.248 5.832H2.676V11.466H7.248ZM21.1539 16.164H21.1179C21.0099 16.44 20.8539 16.704 20.6499 16.956C20.4459 17.196 20.1939 17.412 19.8939 17.604C19.6059 17.796 19.2759 17.946 18.9039 18.054C18.5319 18.162 18.1239 18.216 17.6799 18.216C16.6959 18.216 15.9339 18.006 15.3939 17.586C14.8539 17.154 14.5839 16.494 14.5839 15.606C14.5839 15.066 14.6919 14.628 14.9079 14.292C15.1239 13.944 15.3939 13.674 15.7179 13.482C16.0539 13.278 16.4199 13.134 16.8159 13.05C17.2239 12.966 17.6139 12.906 17.9859 12.87L19.0479 12.78C19.5399 12.744 19.9239 12.69 20.1999 12.618C20.4879 12.534 20.7039 12.426 20.8479 12.294C20.9919 12.15 21.0819 11.97 21.1179 11.754C21.1539 11.538 21.1719 11.268 21.1719 10.944C21.1719 10.692 21.1239 10.458 21.0279 10.242C20.9319 10.026 20.7819 9.834 20.5779 9.666C20.3739 9.498 20.1099 9.366 19.7859 9.27C19.4619 9.174 19.0659 9.126 18.5979 9.126C17.7699 9.126 17.0979 9.33 16.5819 9.738C16.0779 10.146 15.8019 10.764 15.7539 11.592H15.0699C15.1179 10.572 15.4419 9.81 16.0419 9.306C16.6539 8.79 17.5179 8.532 18.6339 8.532C19.7499 8.532 20.5599 8.754 21.0639 9.198C21.5799 9.63 21.8379 10.2 21.8379 10.908V16.29C21.8379 16.422 21.8379 16.554 21.8379 16.686C21.8499 16.818 21.8739 16.938 21.9099 17.046C21.9459 17.154 22.0059 17.244 22.0899 17.316C22.1739 17.376 22.2939 17.406 22.4499 17.406C22.5699 17.406 22.7379 17.388 22.9539 17.352V17.928C22.7739 17.976 22.5879 18 22.3959 18C22.1199 18 21.8979 17.964 21.7299 17.892C21.5739 17.82 21.4539 17.724 21.3699 17.604C21.2859 17.484 21.2259 17.346 21.1899 17.19C21.1659 17.022 21.1539 16.842 21.1539 16.65V16.164ZM21.1539 12.744C20.9859 12.948 20.7279 13.086 20.3799 13.158C20.0439 13.23 19.6659 13.284 19.2459 13.32L18.0939 13.428C17.7579 13.464 17.4219 13.518 17.0859 13.59C16.7499 13.65 16.4439 13.758 16.1679 13.914C15.9039 14.07 15.6879 14.286 15.5199 14.562C15.3519 14.826 15.2679 15.174 15.2679 15.606C15.2679 16.29 15.4839 16.8 15.9159 17.136C16.3479 17.46 16.9419 17.622 17.6979 17.622C18.4779 17.622 19.0959 17.484 19.5519 17.208C20.0079 16.92 20.3559 16.596 20.5959 16.236C20.8359 15.864 20.9859 15.51 21.0459 15.174C21.1179 14.826 21.1539 14.592 21.1539 14.472V12.744ZM29.3379 9.342H27.3219V15.804C27.3219 16.176 27.3639 16.47 27.4479 16.686C27.5319 16.902 27.6579 17.07 27.8259 17.19C28.0059 17.298 28.2159 17.364 28.4559 17.388C28.7079 17.412 28.9959 17.418 29.3199 17.406V18C28.9719 18.024 28.6299 18.024 28.2939 18C27.9699 17.964 27.6819 17.874 27.4299 17.73C27.1779 17.574 26.9739 17.346 26.8179 17.046C26.6739 16.746 26.6139 16.332 26.6379 15.804V9.342H24.9279V8.748H26.6379V5.868H27.3219V8.748H29.3379V9.342ZM32.6761 7.002V5.148H33.3601V7.002H32.6761ZM32.6761 18V8.748H33.3601V18H32.6761ZM37.4575 8.748H38.1415V10.728H38.1775C38.2975 10.38 38.4655 10.074 38.6815 9.81C38.9095 9.534 39.1675 9.3 39.4555 9.108C39.7555 8.916 40.0795 8.772 40.4275 8.676C40.7755 8.58 41.1295 8.532 41.4895 8.532C42.0295 8.532 42.4855 8.598 42.8575 8.73C43.2415 8.862 43.5535 9.036 43.7935 9.252C44.0335 9.468 44.2195 9.714 44.3515 9.99C44.4955 10.254 44.5975 10.524 44.6575 10.8C44.7175 11.076 44.7535 11.346 44.7655 11.61C44.7775 11.862 44.7835 12.084 44.7835 12.276V18H44.0995V12.15C44.0995 11.922 44.0815 11.634 44.0455 11.286C44.0095 10.938 43.9015 10.608 43.7215 10.296C43.5535 9.972 43.2895 9.696 42.9295 9.468C42.5815 9.24 42.0955 9.126 41.4715 9.126C40.9435 9.126 40.4755 9.222 40.0675 9.414C39.6595 9.606 39.3115 9.876 39.0235 10.224C38.7355 10.56 38.5135 10.968 38.3575 11.448C38.2135 11.916 38.1415 12.432 38.1415 12.996V18H37.4575V8.748ZM56.3615 8.748V17.514C56.3615 18.03 56.3015 18.528 56.1815 19.008C56.0615 19.5 55.8515 19.932 55.5515 20.304C55.2635 20.676 54.8615 20.97 54.3455 21.186C53.8295 21.414 53.1755 21.528 52.3835 21.528C51.8915 21.528 51.4295 21.474 50.9975 21.366C50.5655 21.27 50.1875 21.108 49.8635 20.88C49.5395 20.664 49.2755 20.37 49.0715 19.998C48.8795 19.638 48.7715 19.188 48.7475 18.648H49.4315C49.4675 19.056 49.5695 19.404 49.7375 19.692C49.9055 19.98 50.1215 20.214 50.3855 20.394C50.6615 20.586 50.9675 20.724 51.3035 20.808C51.6395 20.892 51.9995 20.934 52.3835 20.934C53.0195 20.934 53.5475 20.838 53.9675 20.646C54.3995 20.454 54.7415 20.202 54.9935 19.89C55.2455 19.59 55.4195 19.242 55.5155 18.846C55.6235 18.462 55.6775 18.072 55.6775 17.676V15.552H55.6415C55.3175 16.236 54.8735 16.758 54.3095 17.118C53.7575 17.478 53.0855 17.658 52.2935 17.658C51.6095 17.658 51.0155 17.544 50.5115 17.316C50.0195 17.076 49.6055 16.752 49.2695 16.344C48.9455 15.924 48.6995 15.438 48.5315 14.886C48.3755 14.334 48.2975 13.734 48.2975 13.086C48.2975 12.474 48.3815 11.892 48.5495 11.34C48.7295 10.788 48.9875 10.308 49.3235 9.9C49.6595 9.48 50.0735 9.15 50.5655 8.91C51.0695 8.658 51.6455 8.532 52.2935 8.532C53.0255 8.532 53.6975 8.718 54.3095 9.09C54.9335 9.462 55.3775 9.99 55.6415 10.674H55.6775V8.748H56.3615ZM52.2935 9.126C51.7295 9.126 51.2375 9.24 50.8175 9.468C50.4095 9.696 50.0675 9.996 49.7915 10.368C49.5275 10.74 49.3235 11.166 49.1795 11.646C49.0475 12.114 48.9815 12.594 48.9815 13.086C48.9815 13.626 49.0475 14.142 49.1795 14.634C49.3235 15.114 49.5335 15.534 49.8095 15.894C50.0975 16.254 50.4455 16.542 50.8535 16.758C51.2735 16.962 51.7535 17.064 52.2935 17.064C52.8575 17.064 53.3495 16.956 53.7695 16.74C54.1895 16.524 54.5375 16.23 54.8135 15.858C55.1015 15.486 55.3115 15.066 55.4435 14.598C55.5875 14.118 55.6595 13.614 55.6595 13.086C55.6595 12.57 55.5875 12.072 55.4435 11.592C55.3115 11.112 55.1015 10.692 54.8135 10.332C54.5375 9.96 54.1895 9.666 53.7695 9.45C53.3495 9.234 52.8575 9.126 52.2935 9.126Z" fill="black"/>
<path fill-rule="evenodd" clip-rule="evenodd" d="M86.5785 7.15653C86.6884 7.26772 86.75 7.41772 86.75 7.57403C86.75 7.73034 86.6884 7.88035 86.5785 7.99153L78.1505 16.8205C78.1002 16.8769 78.0386 16.922 77.9697 16.9529C77.9007 16.9838 77.8261 16.9997 77.7505 16.9997C77.675 16.9997 77.6003 16.9838 77.5314 16.9529C77.4624 16.922 77.4008 16.8769 77.3505 16.8205L68.9225 8.02053C68.8133 7.90908 68.7516 7.75957 68.7505 7.60353C68.7512 7.44741 68.813 7.29775 68.9225 7.18653C68.9728 7.13016 69.0344 7.08505 69.1034 7.05417C69.1723 7.02328 69.247 7.00732 69.3225 7.00732C69.3981 7.00732 69.4727 7.02328 69.5417 7.05417C69.6106 7.08505 69.6722 7.13016 69.7225 7.18653L77.7515 15.5375L85.7805 7.15453C85.8897 7.05459 86.0324 6.99933 86.1804 6.9997C86.3284 7.00007 86.4709 7.05605 86.5795 7.15653L86.5785 7.15653Z" fill="black"/>
</svg>
